PathFileType	4	(X/Y/Z)	/Users/visionmauri/1_5_1_f_1_Sports2D/1_5_1_f_1_Sports2D_px_person00.trc
DataRate	CameraRate	NumFrames	NumMarkers	Units	OrigDataRate	OrigDataStartFrame	OrigNumFrames
30.0	30.0	4	22	m	30.0	270	432
Frame#	Time	Hip			RHip			RKnee			RAnkle			RBigToe			RSmallToe			RHeel			LHip			LKnee			LAnkle			LBigToe			LSmallToe			LHeel			Neck			Head			Nose			RShoulder			RElbow			RWrist			LShoulder			LElbow			LWrist			
		X1	Y1	Z1	X2	Y2	Z2	X3	Y3	Z3	X4	Y4	Z4	X5	Y5	Z5	X6	Y6	Z6	X7	Y7	Z7	X8	Y8	Z8	X9	Y9	Z9	X10	Y10	Z10	X11	Y11	Z11	X12	Y12	Z12	X13	Y13	Z13	X14	Y14	Z14	X15	Y15	Z15	X16	Y16	Z16	X17	Y17	Z17	X18	Y18	Z18	X19	Y19	Z19	X20	Y20	Z20	X21	Y21	Z21	X22	Y22	Z22
270	9.020881670533644	529.9076372767073	830.7724281928496	0.0	480.92730455547644	833.539735412347	0.0	482.24430653585904	1018.4813091244629	0.0	493.1660226221052	1207.6970959912464	0.0	502.3975825915079	1273.9914274387863	0.0	474.4180846514393	1268.3333722696477	0.0	499.1038478253067	1235.1709075629324	0.0	576.7474641282107	836.81344078693	0.0	574.7134339931449	1009.338800212172	0.0	575.122455156042	1177.6596211490987	0.0	567.1277913698696	1248.6469167589194	0.0	591.9736519217523	1238.3265162192642	0.0	569.0540242041886	1203.821367050933	0.0	542.5548883365468	553.7177211810297	0.0	545.3037718749405	431.56737235080334	0.0	542.8753660823023	512.4370357310144	0.0	455.40194811636195	588.9872120856996	0.0	422.91681203246884	700.7616322965059	0.0	385.18160835915415	802.8296556754243	0.0	631.6307302880342	591.3663661553663	0.0	664.2482740133966	714.7080628889954	0.0	667.720007777179	806.6017946988701	0.0
271	9.054292343387472	528.5717852027163	831.1647659171829	0.0	480.026452264378	834.9743832949445	0.0	483.648875686854	1019.9117577624255	0.0	494.10639544609705	1208.761496028205	0.0	504.7175189328089	1274.8134968276167	0.0	476.5554645771417	1270.1693965492584	0.0	499.27543011641234	1236.8295684741547	0.0	575.9025500925701	837.3571277685076	0.0	573.792308980179	1009.0854202707453	0.0	574.7304710020074	1175.840657177539	0.0	567.822191802853	1248.8546932318034	0.0	591.7695164210769	1238.1651655773496	0.0	567.9889425036934	1202.3436949910247	0.0	540.7781650346577	552.911115972927	0.0	543.237700176596	430.26292038013537	0.0	540.7410654392787	512.1561397673228	0.0	452.81447743408916	589.222571356855	0.0	421.16594731400073	700.8411204030356	0.0	385.1125213699329	802.2669137234369	0.0	629.3956945624572	591.6666232504231	0.0	663.3035005122688	713.817156067822	0.0	666.3125493482927	807.1288542631066	0.0
272	9.0877030162413	527.0901299466282	830.9054325679266	0.0	478.60806002471634	835.9716039718134	0.0	484.28154040919674	1020.4221332789899	0.0	493.88147302842015	1208.8601035635638	0.0	504.896446370091	1274.8200019620788	0.0	476.7721381451663	1270.743408171798	0.0	498.8939204695517	1237.2901526852072	0.0	575.1888367090711	837.4404860213773	0.0	573.723648682442	1008.6347279335937	0.0	574.5098113494611	1174.3848041651754	0.0	568.5175719433696	1249.1488735115024	0.0	591.8937261098757	1238.2987358505586	0.0	567.0475929965419	1201.9021383235638	0.0	538.9657258178784	552.14135821833	0.0	540.8890494884452	428.887246595738	0.0	538.5794768766502	511.8077957898227	0.0	449.4852490486289	588.9861193488194	0.0	418.65585115223365	700.5455253104013	0.0	384.9841653088206	801.6357803804448	0.0	627.6373267297184	591.1767271966927	0.0	663.1882932442425	712.6309441052787	0.0	666.1210059153469	803.2297754623215	0.0
273	9.121113689095129	526.4266672325632	830.2332798351279	0.0	477.67628888112716	836.5832282359987	0.0	483.5533094616503	1020.6124581484343	0.0	493.3119808777119	1208.9407501636533	0.0	504.61233014705715	1274.929680625045	0.0	476.39057988784725	1270.5522553714018	0.0	498.40784229670624	1237.4960527001651	0.0	574.621670379987	837.2469505972164	0.0	574.0902023322452	1007.5746573196576	0.0	574.4609822505063	1173.872937457772	0.0	568.7689052217563	1249.4482494367303	0.0	592.1386956437668	1238.6592360344794	0.0	566.478270192461	1201.9893100571517	0.0	536.6558112548003	551.2886285961506	0.0	538.3076999884521	427.62227518865353	0.0	535.8647866820901	509.8545743253973	0.0	446.3614537307051	588.7876568239545	0.0	416.1508387497455	699.4460808970562	0.0	384.47178937141064	801.1076116411494	0.0	625.7722875875425	589.4674525478301	0.0	662.6954055135674	711.3707856235591	0.0	665.9663399668947	793.1435918813282	0.0
